<?xml version="1.0" standalone="no"?>
<!DOCTYPE svg PUBLIC "-//W3C//DTD SVG 20010904//EN"
 "http://www.w3.org/TR/2001/REC-SVG-20010904/DTD/svg10.dtd">
<svg version="1.0" xmlns="http://www.w3.org/2000/svg"
 width="96.000000pt" height="96.000000pt" viewBox="0 0 96.000000 96.000000"
 preserveAspectRatio="xMidYMid meet">
<metadata>
Created by potrace 1.14, written by Peter Selinger 2001-2017
</metadata>
<g transform="translate(0.000000,96.000000) scale(0.100000,-0.100000)"
fill="#000000" stroke="none">
<path d="M595 851 c-22 -10 -75 -55 -118 -99 -65 -66 -75 -79 -55 -78 12 1 39
-1 59 -5 34 -5 40 -2 85 44 56 56 86 71 130 63 47 -9 79 -49 79 -100 0 -48
-13 -67 -132 -179 -58 -56 -79 -70 -112 -74 -37 -5 -44 -2 -77 31 -20 20 -39
36 -43 36 -4 0 -20 -13 -36 -30 l-28 -29 39 -40 c59 -58 139 -76 212 -46 48
20 229 199 253 250 75 161 -95 331 -256 256z"/>
<path d="M330 790 c0 -49 1 -50 30 -50 29 0 30 1 30 50 0 49 -1 50 -30 50 -29
0 -30 -1 -30 -50z"/>
<path d="M190 772 l-22 -18 27 -32 c18 -22 35 -32 49 -30 32 5 31 39 -2 71
-28 27 -29 27 -52 9z"/>
<path d="M120 600 c0 -29 1 -30 49 -30 44 0 49 2 53 25 7 33 3 35 -54 35 -47
0 -48 -1 -48 -30z"/>
<path d="M355 611 c-51 -24 -230 -205 -250 -253 -66 -161 103 -322 260 -249
22 10 75 55 118 99 65 66 75 79 55 78 -12 -1 -39 1 -59 5 -34 5 -40 2 -85 -44
-56 -56 -86 -71 -130 -63 -48 9 -79 49 -79 101 0 38 6 49 50 96 106 114 152
150 194 156 36 5 44 2 77 -31 20 -20 39 -36 43 -36 4 0 20 13 35 29 l27 28
-28 33 c-55 66 -151 87 -228 51z"/>
<path d="M738 373 c-9 -34 2 -43 53 -43 48 0 49 1 49 30 0 29 -1 30 -49 30
-38 0 -50 -4 -53 -17z"/>
<path d="M697 263 c-14 -13 -7 -40 16 -60 35 -32 43 -34 61 -14 16 17 15 20
-9 50 -25 29 -53 39 -68 24z"/>
<path d="M570 170 c0 -49 1 -50 30 -50 29 0 30 1 30 50 0 49 -1 50 -30 50 -29
0 -30 -1 -30 -50z"/>
</g>
</svg>
